# File created by Blade
# Date/Time:  Wed Jan 21 16:09:38 2015
# Frame Rate: 120.000 fps
#------------------------------------------------------
:FULLY-SPECIFIED
:DEGREES
744
root 20.181870 35.424080 -22.428200 -172.665488 18.293092 -176.635024
Spine -6.152667 5.946727 4.667026
Head 1.339868 3.176338 0.387894
LeftShoulder -15.992638 -32.648284 20.932595
LeftArm 2.703135 3.478671 -16.490164
LeftForeArm 4.525689 -0.000000 -2.148608
LeftHand -8.932106 -0.000000 9.372415
LeftHandThumb1 -26.253704 0.000000 33.147579
RightShoulder -11.611059 -5.053189 -14.676811
RightArm 3.050869 41.943885 17.215867
RightForeArm -28.128669 -0.000000 8.426356
RightHand -16.171448 -0.000000 -10.154753
RightHandThumb1 -24.326973 -0.000000 -32.862282
LeftUpLeg 6.970008 17.423013 7.844054
LeftLeg -14.434189 -0.000000 0.000000
LeftFoot 5.975556 25.659641 7.388924
LeftToeBase -143.333537 -0.000000 0.000000
RightUpLeg -11.134040 -40.033629 7.101582
RightLeg -2.749970 -0.000000 0.000000
RightFoot -9.507898 -49.024643 6.866550
RightToeBase 12.917230 -0.000000 -0.000000
745
root 20.069244 35.418904 -22.428500 -172.698075 17.612213 -176.687810
Spine -6.287785 5.847605 4.411093
Head 1.349240 2.889120 0.855350
LeftShoulder -15.788445 -32.566481 20.960706
LeftArm 3.084501 3.417623 -16.478351
LeftForeArm 4.641005 -0.000000 -2.064698
LeftHand -8.943680 -0.000000 9.294685
LeftHandThumb1 -26.253704 0.000000 33.147579
RightShoulder -11.650709 -4.931889 -14.439826
RightArm 3.098524 41.916157 17.159525
RightForeArm -28.305911 -0.000000 8.430113
RightHand -16.167568 -0.000000 -10.137425
RightHandThumb1 -24.326973 -0.000000 -32.862282
LeftUpLeg 6.729660 16.810258 7.685081
LeftLeg -14.337057 -0.000000 0.000000
LeftFoot 5.559430 25.404640 7.480350
LeftToeBase -143.221494 -0.000000 0.000000
RightUpLeg -11.302652 -40.530005 6.944138
RightLeg -2.481439 -0.000000 0.000000
RightFoot -9.458414 -49.249384 6.976917
RightToeBase 13.102940 -0.000000 -0.000000
746
root 19.956195 35.414148 -22.430553 -172.773781 16.924456 -176.735527
Spine -6.353628 5.754207 4.200361
Head 1.310107 2.592306 1.236838
LeftShoulder -15.477186 -32.724142 20.903806
LeftArm 3.323309 3.672311 -16.357295
LeftForeArm 4.645801 -0.000000 -1.997306
LeftHand -8.974479 -0.000000 9.203973
LeftHandThumb1 -26.253704 0.000000 33.147579
RightShoulder -11.792653 -4.984849 -14.181948
RightArm 3.397583 42.097554 17.219253
RightForeArm -28.363448 -0.000000 8.288314
RightHand -16.119748 -0.000000 -10.056913
RightHandThumb1 -24.326973 -0.000000 -32.862282
LeftUpLeg 6.542916 16.136398 7.547548
LeftLeg -14.244621 -0.000000 0.000000
LeftFoot 5.176000 25.183831 7.614125
LeftToeBase -143.088865 -0.000000 0.000000
RightUpLeg -11.422632 -41.056325 6.748447
RightLeg -2.168295 -0.000000 0.000000
RightFoot -9.401913 -49.391056 7.057562
RightToeBase 13.195618 -0.000000 -0.000000
747
root 19.839551 35.411305 -22.439242 -172.897290 16.206146 -176.797399
Spine -6.363691 5.617830 4.009925
Head 1.287827 2.310581 1.538754
LeftShoulder -15.264281 -32.795493 20.836362
LeftArm 3.702979 3.860089 -16.285989
LeftForeArm 4.634554 -0.000000 -1.985144
LeftHand -8.923675 -0.000000 9.102094
LeftHandThumb1 -26.253704 0.000000 33.147579
RightShoulder -11.960650 -5.004410 -14.017837
RightArm 3.694031 42.253620 17.374199
RightForeArm -28.484446 -0.000000 8.140688
RightHand -16.068771 -0.000000 -9.974645
RightHandThumb1 -24.326973 -0.000000 -32.862282
LeftUpLeg 6.391282 15.395379 7.399747
LeftLeg -14.133761 -0.000000 0.000000
LeftFoot 4.814855 25.009429 7.724602
LeftToeBase -142.996895 -0.000000 0.000000
RightUpLeg -11.446240 -41.607608 6.470782
RightLeg -1.881551 -0.000000 0.000000
RightFoot -9.333056 -49.543700 7.167491
RightToeBase 13.446961 -0.000000 -0.000000
748
root 19.723971 35.408643 -22.448495 -173.041212 15.593458 -176.835031
Spine -6.329788 5.573078 3.834464
Head 1.212368 1.997774 1.842455
LeftShoulder -15.078885 -32.631979 20.718883
LeftArm 4.259529 3.845032 -16.246714
LeftForeArm 4.675319 -0.000000 -2.066072
LeftHand -8.905403 -0.000000 9.045831
LeftHandThumb1 -26.253704 0.000000 33.147579
RightShoulder -12.024893 -4.924690 -13.843295
RightArm 3.803212 42.341777 17.315981
RightForeArm -28.467065 -0.000000 7.839738
RightHand -15.858813 -0.000000 -9.789541
RightHandThumb1 -24.326973 -0.000000 -32.862282
LeftUpLeg 6.324142 14.692127 7.277034
LeftLeg -14.068447 -0.000000 0.000000
LeftFoot 4.542107 24.890602 7.881909
LeftToeBase -142.847781 -0.000000 0.000000
RightUpLeg -11.425547 -42.052694 6.165441
RightLeg -1.577664 -0.000000 0.000000
RightFoot -9.296415 -49.665576 7.335795
RightToeBase 13.695867 -0.000000 -0.000000
749
root 19.605011 35.408074 -22.457171 -173.162854 15.042147 -176.864507
Spine -6.320182 5.540600 3.699641
Head 1.196366 1.727012 2.060016
LeftShoulder -14.856288 -32.599745 20.595176
LeftArm 4.629846 3.984992 -16.171915
LeftForeArm 4.693420 -0.000000 -2.093951
LeftHand -8.903840 0.000000 8.857539
LeftHandThumb1 -26.253704 0.000000 33.147579
RightShoulder -12.070446 -4.918776 -13.723144
RightArm 3.968266 42.309112 17.318493
RightForeArm -28.302065 -0.000000 7.547513
RightHand -15.790351 -0.000000 -9.752299
RightHandThumb1 -24.326973 -0.000000 -32.862282
LeftUpLeg 6.275661 13.917411 7.139561
LeftLeg -14.047143 -0.000000 0.000000
LeftFoot 4.380134 24.901174 8.080339
LeftToeBase -142.643174 -0.000000 0.000000
RightUpLeg -11.415843 -42.352734 5.843305
RightLeg -1.246801 -0.000000 0.000000
RightFoot -9.250452 -49.826096 7.516773
RightToeBase 13.915942 -0.000000 -0.000000
750
root 19.485143 35.406204 -22.467940 -173.343464 14.535405 -176.888481
Spine -6.216153 5.533295 3.588092
Head 1.123044 1.461483 2.244903
LeftShoulder -14.674849 -32.623733 20.517200
LeftArm 4.978859 4.090307 -16.151511
LeftForeArm 4.756678 -0.000000 -2.152539
LeftHand -8.855165 -0.000000 8.803028
LeftHandThumb1 -26.253704 0.000000 33.147579
RightShoulder -12.133285 -5.005342 -13.631702
RightArm 4.185764 42.454522 17.437948
RightForeArm -28.365459 -0.000000 7.300535
RightHand -15.729525 0.000000 -9.640157
RightHandThumb1 -24.326973 -0.000000 -32.862282
LeftUpLeg 6.332579 13.104961 7.014293
LeftLeg -14.070452 -0.000000 0.000000
LeftFoot 4.254744 24.965147 8.290927
LeftToeBase -142.501545 -0.000000 0.000000
RightUpLeg -11.337400 -42.641991 5.457120
RightLeg -0.862205 -0.000000 0.000000
RightFoot -9.160532 -49.920850 7.615586
RightToeBase 14.034334 -0.000000 -0.000000
